<mxfile host="ac.draw.io" modified="2022-10-19T07:56:17.193Z" agent="5.0 (X11)" etag="DGQepHzyncAR7xV3KtVK" version="20.4.1" type="embed"><diagram id="JUH28zfm4aMiIRyT821z" name="Page-1"><mxGraphModel dx="1420" dy="783" grid="1" gridSize="10" guides="1" tooltips="1" connect="1" arrows="1" fold="1" page="1" pageScale="1" pageWidth="850" pageHeight="1100" math="0" shadow="0"><root><mxCell id="0"/><mxCell id="1" parent="0"/><mxCell id="bSUaXpYKzy4aMiKpspOf-10" style="edgeStyle=orthogonalEdgeStyle;rounded=0;orthogonalLoop=1;jettySize=auto;html=1;exitX=0.25;exitY=1;exitDx=0;exitDy=0;entryX=0.131;entryY=0.957;entryDx=0;entryDy=0;entryPerimeter=0;" parent="1" source="bSUaXpYKzy4aMiKpspOf-1" target="bSUaXpYKzy4aMiKpspOf-5" edge="1"><mxGeometry relative="1" as="geometry"><Array as="points"><mxPoint x="80" y="390"/><mxPoint x="331" y="390"/></Array></mxGeometry></mxCell><mxCell id="bSUaXpYKzy4aMiKpspOf-24" style="edgeStyle=orthogonalEdgeStyle;rounded=0;orthogonalLoop=1;jettySize=auto;html=1;exitX=0.75;exitY=1;exitDx=0;exitDy=0;entryX=0;entryY=0.853;entryDx=0;entryDy=0;entryPerimeter=0;" parent="1" source="bSUaXpYKzy4aMiKpspOf-1" target="bSUaXpYKzy4aMiKpspOf-19" edge="1"><mxGeometry relative="1" as="geometry"/></mxCell><mxCell id="bSUaXpYKzy4aMiKpspOf-26" value="master0" style="edgeStyle=orthogonalEdgeStyle;rounded=0;orthogonalLoop=1;jettySize=auto;html=1;startArrow=classic;startFill=1;endArrow=classic;endFill=1;" parent="1" source="bSUaXpYKzy4aMiKpspOf-1" edge="1"><mxGeometry relative="1" as="geometry"><mxPoint x="120" y="120" as="targetPoint"/></mxGeometry></mxCell><mxCell id="bSUaXpYKzy4aMiKpspOf-1" value="AXI_DEMUX" style="shape=trapezoid;perimeter=trapezoidPerimeter;whiteSpace=wrap;html=1;fixedSize=1;" parent="1" vertex="1"><mxGeometry x="40" y="200" width="160" height="40" as="geometry"/></mxCell><mxCell id="bSUaXpYKzy4aMiKpspOf-7" style="edgeStyle=orthogonalEdgeStyle;rounded=0;orthogonalLoop=1;jettySize=auto;html=1;exitX=0.25;exitY=1;exitDx=0;exitDy=0;entryX=0.319;entryY=0.95;entryDx=0;entryDy=0;entryPerimeter=0;" parent="1" source="bSUaXpYKzy4aMiKpspOf-2" target="bSUaXpYKzy4aMiKpspOf-5" edge="1"><mxGeometry relative="1" as="geometry"/></mxCell><mxCell id="bSUaXpYKzy4aMiKpspOf-23" style="edgeStyle=orthogonalEdgeStyle;rounded=0;orthogonalLoop=1;jettySize=auto;html=1;exitX=0.75;exitY=1;exitDx=0;exitDy=0;entryX=-0.008;entryY=0.62;entryDx=0;entryDy=0;entryPerimeter=0;" parent="1" source="bSUaXpYKzy4aMiKpspOf-2" target="bSUaXpYKzy4aMiKpspOf-19" edge="1"><mxGeometry relative="1" as="geometry"/></mxCell><mxCell id="bSUaXpYKzy4aMiKpspOf-27" value="&lt;div&gt;master1&lt;/div&gt;" style="edgeStyle=orthogonalEdgeStyle;rounded=0;orthogonalLoop=1;jettySize=auto;html=1;exitX=0.5;exitY=0;exitDx=0;exitDy=0;startArrow=classic;startFill=1;endArrow=classic;endFill=1;" parent="1" source="bSUaXpYKzy4aMiKpspOf-2" edge="1"><mxGeometry relative="1" as="geometry"><mxPoint x="300" y="120" as="targetPoint"/></mxGeometry></mxCell><mxCell id="bSUaXpYKzy4aMiKpspOf-2" value="AXI_DEMUX" style="shape=trapezoid;perimeter=trapezoidPerimeter;whiteSpace=wrap;html=1;fixedSize=1;" parent="1" vertex="1"><mxGeometry x="220" y="200" width="160" height="40" as="geometry"/></mxCell><mxCell id="bSUaXpYKzy4aMiKpspOf-8" style="edgeStyle=orthogonalEdgeStyle;rounded=0;orthogonalLoop=1;jettySize=auto;html=1;exitX=0.25;exitY=1;exitDx=0;exitDy=0;entryX=0.5;entryY=0;entryDx=0;entryDy=0;" parent="1" source="bSUaXpYKzy4aMiKpspOf-3" target="bSUaXpYKzy4aMiKpspOf-5" edge="1"><mxGeometry relative="1" as="geometry"/></mxCell><mxCell id="bSUaXpYKzy4aMiKpspOf-21" style="edgeStyle=orthogonalEdgeStyle;rounded=0;orthogonalLoop=1;jettySize=auto;html=1;exitX=0.75;exitY=1;exitDx=0;exitDy=0;entryX=0.008;entryY=0.36;entryDx=0;entryDy=0;entryPerimeter=0;" parent="1" source="bSUaXpYKzy4aMiKpspOf-3" target="bSUaXpYKzy4aMiKpspOf-19" edge="1"><mxGeometry relative="1" as="geometry"/></mxCell><mxCell id="bSUaXpYKzy4aMiKpspOf-28" value="master2" style="edgeStyle=orthogonalEdgeStyle;rounded=0;orthogonalLoop=1;jettySize=auto;html=1;exitX=0.5;exitY=0;exitDx=0;exitDy=0;startArrow=classic;startFill=1;endArrow=classic;endFill=1;" parent="1" source="bSUaXpYKzy4aMiKpspOf-3" edge="1"><mxGeometry relative="1" as="geometry"><mxPoint x="480" y="120" as="targetPoint"/></mxGeometry></mxCell><mxCell id="bSUaXpYKzy4aMiKpspOf-3" value="AXI_DEMUX" style="shape=trapezoid;perimeter=trapezoidPerimeter;whiteSpace=wrap;html=1;fixedSize=1;" parent="1" vertex="1"><mxGeometry x="400" y="200" width="160" height="40" as="geometry"/></mxCell><mxCell id="bSUaXpYKzy4aMiKpspOf-11" style="edgeStyle=orthogonalEdgeStyle;rounded=0;orthogonalLoop=1;jettySize=auto;html=1;exitX=0.25;exitY=1;exitDx=0;exitDy=0;entryX=0.688;entryY=0.975;entryDx=0;entryDy=0;entryPerimeter=0;" parent="1" source="bSUaXpYKzy4aMiKpspOf-4" target="bSUaXpYKzy4aMiKpspOf-5" edge="1"><mxGeometry relative="1" as="geometry"><Array as="points"><mxPoint x="620" y="390"/><mxPoint x="420" y="390"/></Array></mxGeometry></mxCell><mxCell id="bSUaXpYKzy4aMiKpspOf-20" style="edgeStyle=orthogonalEdgeStyle;rounded=0;orthogonalLoop=1;jettySize=auto;html=1;exitX=0.75;exitY=1;exitDx=0;exitDy=0;entryX=-0.008;entryY=0.153;entryDx=0;entryDy=0;entryPerimeter=0;" parent="1" source="bSUaXpYKzy4aMiKpspOf-4" target="bSUaXpYKzy4aMiKpspOf-19" edge="1"><mxGeometry relative="1" as="geometry"/></mxCell><mxCell id="bSUaXpYKzy4aMiKpspOf-29" value="master3" style="edgeStyle=orthogonalEdgeStyle;rounded=0;orthogonalLoop=1;jettySize=auto;html=1;exitX=0.5;exitY=0;exitDx=0;exitDy=0;startArrow=classic;startFill=1;endArrow=classic;endFill=1;" parent="1" source="bSUaXpYKzy4aMiKpspOf-4" edge="1"><mxGeometry relative="1" as="geometry"><mxPoint x="660" y="120" as="targetPoint"/></mxGeometry></mxCell><mxCell id="bSUaXpYKzy4aMiKpspOf-4" value="AXI_DEMUX" style="shape=trapezoid;perimeter=trapezoidPerimeter;whiteSpace=wrap;html=1;fixedSize=1;" parent="1" vertex="1"><mxGeometry x="580" y="200" width="160" height="40" as="geometry"/></mxCell><mxCell id="bSUaXpYKzy4aMiKpspOf-31" value="&lt;div&gt;slave&lt;/div&gt;" style="edgeStyle=orthogonalEdgeStyle;rounded=0;orthogonalLoop=1;jettySize=auto;html=1;exitX=0.5;exitY=1;exitDx=0;exitDy=0;startArrow=classic;startFill=1;endArrow=classic;endFill=1;" parent="1" source="bSUaXpYKzy4aMiKpspOf-5" edge="1"><mxGeometry relative="1" as="geometry"><mxPoint x="390" y="560" as="targetPoint"/></mxGeometry></mxCell><mxCell id="bSUaXpYKzy4aMiKpspOf-5" value="AXI_MUX" style="shape=trapezoid;perimeter=trapezoidPerimeter;whiteSpace=wrap;html=1;fixedSize=1;rotation=0;flipV=1;" parent="1" vertex="1"><mxGeometry x="310" y="460" width="160" height="40" as="geometry"/></mxCell><mxCell id="bSUaXpYKzy4aMiKpspOf-14" value="4x snoop" style="shape=flexArrow;endArrow=classic;startArrow=classic;html=1;rounded=0;exitX=0.5;exitY=0;exitDx=0;exitDy=0;" parent="1" source="bSUaXpYKzy4aMiKpspOf-19" edge="1"><mxGeometry width="100" height="100" relative="1" as="geometry"><mxPoint x="949.5" y="300" as="sourcePoint"/><mxPoint x="820" y="110" as="targetPoint"/></mxGeometry></mxCell><mxCell id="bSUaXpYKzy4aMiKpspOf-22" style="edgeStyle=orthogonalEdgeStyle;rounded=0;orthogonalLoop=1;jettySize=auto;html=1;exitX=0.5;exitY=1;exitDx=0;exitDy=0;entryX=0.894;entryY=1.025;entryDx=0;entryDy=0;entryPerimeter=0;" parent="1" source="bSUaXpYKzy4aMiKpspOf-19" target="bSUaXpYKzy4aMiKpspOf-5" edge="1"><mxGeometry relative="1" as="geometry"/></mxCell><mxCell id="bSUaXpYKzy4aMiKpspOf-19" value="&lt;div&gt;CCU&lt;/div&gt;&lt;div&gt;logic&lt;br&gt;&lt;/div&gt;" style="rounded=0;whiteSpace=wrap;html=1;" parent="1" vertex="1"><mxGeometry x="760" y="240" width="120" height="150" as="geometry"/></mxCell></root></mxGraphModel></diagram></mxfile>